<?xml version="1.0" encoding="utf-8"?>
<!-- Generator: Adobe Illustrator 24.0.1, SVG Export Plug-In . SVG Version: 6.00 Build 0)  -->
<svg version="1.1" id="object3" xmlns="http://www.w3.org/2000/svg" xmlns:xlink="http://www.w3.org/1999/xlink" x="0px" y="0px"
	 viewBox="0 0 1366 850" style="enable-background:new 0 0 1366 850;" xml:space="preserve">
<style type="text/css">
	.st0{fill:url(#Path_8_1_);}
	.st1{opacity:9.000000e-02;fill:url(#Path_9_1_);enable-background:new    ;}
	.st2{opacity:0.17;fill:url(#Path_10_1_);enable-background:new    ;}
</style>
<g id="Layer_1">
	
		<linearGradient id="Path_8_1_" gradientUnits="userSpaceOnUse" x1="706.5206" y1="164.1358" x2="674.8405" y2="515.4958" gradientTransform="matrix(-1 0 0 -1 1366 850)">
		<stop  offset="0" style="stop-color:#002393"/>
		<stop  offset="1" style="stop-color:#483ACE"/>
	</linearGradient>
	<path id="Path_8" class="st0" d="M1102,111L942,94.9L0,0l0,548c0,145,264,191,264,191l175,17.6l927,93.4V302
		C1366,157,1102,111,1102,111z"/>
	
		<linearGradient id="Path_9_1_" gradientUnits="userSpaceOnUse" x1="1155.9708" y1="204.66" x2="1124.2908" y2="556.02" gradientTransform="matrix(-1 0 0 -1 1366 850)">
		<stop  offset="0" style="stop-color:#002393"/>
		<stop  offset="1" style="stop-color:#483ACE"/>
	</linearGradient>
	<path id="Path_9" class="st1" d="M0,324l0,224c0,145,264,191,264,191l175,17.6V324H0z"/>
	
		<linearGradient id="Path_10_1_" gradientUnits="userSpaceOnUse" x1="250.3239" y1="123.0033" x2="218.6439" y2="474.3633" gradientTransform="matrix(-1 0 0 -1 1366 850)">
		<stop  offset="0" style="stop-color:#002393"/>
		<stop  offset="1" style="stop-color:#483ACE"/>
	</linearGradient>
	<path id="Path_10" class="st2" d="M1102,111L942,94.9V509h424V302C1366,157,1102,111,1102,111z"/>
</g>
</svg>
