<svg id="Capa_1" enable-background="new 0 0 512 512" height="512" viewBox="0 0 512 512" width="512" xmlns="http://www.w3.org/2000/svg"><g><g><path d="m304.488 383.28s20.001 17.209 20.001 44.808-25.051 49.137-25.051 49.137l-8.081-13.132-35.357 40.407-35.356-40.406-8.081 13.132s-25.051-21.538-25.051-49.137 20.001-44.808 20.001-44.808h96.975z" fill="#f6e266"/></g><g><path d="m305.763 384.479c1.137 5.146 1.755 10.486 1.755 15.974 0 40.727-33.015 73.742-73.742 73.742-1.485 0-2.956-.057-4.419-.144l26.643 30.449 35.356-40.406 8.081 13.132s25.051-21.538 25.051-49.137c0-23.357-14.321-39.269-18.725-43.61z" fill="#f1d333"/></g><g><path d="m273.173 383.28s13.132 13.132 13.132 34.346c0 25.254-30.305 38.386-30.305 38.386s-30.305-13.132-30.305-38.386c0-21.213 13.132-34.346 13.132-34.346z" fill="#e49542"/></g><g><path d="m304.488 257.01v126.27h80.813v-79.802z" fill="#dd5790"/></g><g><path d="m362.591 290.42-58.104-33.41v126.27h26.123c6.552-16.618 20.411-53.162 31.981-92.86z" fill="#da387d"/></g><g><path d="m207.512 257.01v126.27h-80.813v-79.802z" fill="#dd5790"/></g><g><path d="m149.409 290.42 58.104-33.41v126.27h-26.123c-6.552-16.618-20.411-53.162-31.981-92.86z" fill="#da387d"/></g><g><path d="m304.488 383.28s52.528-127.28 52.528-193.951c0-127.28-101.016-181.829-101.016-181.829s-101.016 54.549-101.016 181.829c0 66.671 52.528 193.951 52.528 193.951z" fill="#ecf4ff"/></g><g><path d="m202.75 330.741c-5.143 0-10.225-.295-15.238-.858 10.742 30.962 20.001 53.398 20.001 53.398h96.976s52.528-127.28 52.528-193.951c0-6.27-.254-12.357-.72-18.276-7.502 89.61-73.379 159.687-153.547 159.687z" fill="#cbe2ff"/></g><g><path d="m179.715 88.313h152.57c-29.906-55.754-76.285-80.813-76.285-80.813s-46.379 25.059-76.285 80.813z" fill="#dd5790"/></g><g><circle cx="256" cy="210.543" fill="#dd5790" r="60.61"/></g><g><path d="m290.71 160.869c6.884 9.834 10.936 21.795 10.936 34.71 0 33.474-27.136 60.61-60.61 60.61-12.915 0-24.877-4.052-34.71-10.936 10.959 15.654 29.114 25.899 49.673 25.899 33.474 0 60.61-27.136 60.61-60.61.001-20.558-10.245-38.714-25.899-49.673z" fill="#da387d"/></g><g><circle cx="256" cy="210.543" fill="#9dc6fb" r="28.285"/></g><g><path d="m389.039 296.976-39.238-22.562c8.338-30.283 14.718-61.239 14.718-85.084 0-12.607-.98-25.106-2.914-37.149-.656-4.088-4.493-6.868-8.595-6.216-4.089.657-6.872 4.505-6.216 8.595 1.808 11.259 2.725 22.957 2.725 34.771 0 57.354-40.789 163.083-50.093 186.45h-86.856c-2.204-5.523-6.17-15.646-10.91-28.556-1.428-3.889-5.737-5.885-9.625-4.455-3.888 1.427-5.883 5.736-4.456 9.625 3.494 9.516 6.577 17.546 8.863 23.386h-62.243v-67.964l32.282-18.562c2.837 9.52 5.987 19.482 9.453 29.886 1.047 3.143 3.974 5.131 7.114 5.131.786 0 1.585-.124 2.372-.387 3.93-1.31 6.054-5.557 4.745-9.486-18.112-54.361-27.685-97.609-27.685-125.068 0-33.848 7.297-65.159 21.73-93.517h143.508c4.095 8.05 7.829 16.711 10.988 26.034 1.06 3.125 3.977 5.095 7.103 5.095.798 0 1.61-.128 2.408-.398 3.923-1.329 6.025-5.587 4.696-9.511-26.946-79.528-90.65-114.676-93.35-116.134-2.226-1.202-4.905-1.199-7.129.001-.626.339-15.553 8.485-34.064 25.59-3.042 2.812-3.229 7.557-.418 10.599s7.556 3.229 10.598.419c11.893-10.989 22.247-18.018 27.45-21.279 10.162 6.379 40.012 27.228 63.26 64.583h-126.579c3.94-6.325 8.255-12.49 12.959-18.483 2.557-3.258 1.989-7.973-1.27-10.53-3.26-2.556-7.974-1.989-10.53 1.271-30.763 39.198-46.36 85.042-46.36 136.26 0 21.173 4.943 49.682 14.73 85.077l-39.249 22.568c-2.327 1.338-3.762 3.817-3.762 6.502v79.803c0 4.143 3.358 7.5 7.5 7.5h64.829c-5.725 8.72-11.516 21.449-11.516 37.309 0 30.688 26.532 53.853 27.662 54.824 1.666 1.432 3.873 2.061 6.044 1.724 2.169-.338 4.082-1.61 5.233-3.48l2.75-4.467 28.656 32.749c1.423 1.626 3.48 2.56 5.643 2.56s4.22-.934 5.645-2.562l28.655-32.749 2.749 4.467c1.151 1.87 3.063 3.142 5.233 3.48 2.169.333 4.378-.293 6.044-1.724 1.129-.972 27.662-24.136 27.662-54.824 0-15.859-5.792-28.589-11.516-37.309h64.829c4.143 0 7.5-3.357 7.5-7.5v-79.803c0-2.683-1.435-5.163-3.762-6.5zm-110.234 120.65c0 15.809-16.04 26.278-22.82 29.997-6.797-3.697-22.79-14.09-22.79-29.997 0-13.123 6.004-22.742 9.114-26.846h27.378c3.125 4.123 9.118 13.736 9.118 26.846zm21.974 47.472-3.036-4.935c-1.249-2.029-3.388-3.345-5.762-3.543-2.363-.197-4.701.741-6.271 2.535l-29.71 33.955-29.711-33.955c-1.569-1.793-3.892-2.732-6.271-2.535-2.375.198-4.513 1.514-5.761 3.543l-3.037 4.934c-6.644-7.681-16.209-21.442-16.209-37.008 0-18.975 11.096-32.596 15.56-37.309h14.127c-3.409 6.704-6.504 15.818-6.504 26.846 0 29.835 33.401 44.651 34.823 45.268.951.412 1.967.618 2.982.618 1.016 0 2.03-.206 2.982-.618 1.422-.616 34.822-15.433 34.822-45.268 0-11.028-3.094-20.142-6.503-26.846h14.125c4.482 4.731 15.562 18.346 15.562 37.309.001 15.566-9.566 29.33-16.208 37.009zm77.022-89.318h-62.226c6.445-16.405 19.13-49.992 29.973-86.51l32.254 18.546v67.964z"/><path d="m187.89 210.543c0 37.556 30.554 68.109 68.11 68.109s68.109-30.554 68.109-68.109c0-37.557-30.554-68.11-68.109-68.11s-68.11 30.553-68.11 68.11zm121.219 0c0 29.284-23.825 53.109-53.109 53.109-29.285 0-53.11-23.825-53.11-53.109 0-29.285 23.825-53.11 53.11-53.11 29.284 0 53.109 23.825 53.109 53.11z"/><path d="m220.215 210.543c0 19.731 16.053 35.784 35.785 35.784 19.731 0 35.784-16.053 35.784-35.784 0-19.732-16.053-35.785-35.784-35.785-19.732 0-35.785 16.053-35.785 35.785zm56.569 0c0 11.46-9.324 20.784-20.784 20.784-11.461 0-20.785-9.324-20.785-20.784 0-11.461 9.324-20.785 20.785-20.785 11.46 0 20.784 9.324 20.784 20.785z"/></g></g></svg>