<svg id="telegram_2_" data-name="telegram (2)" xmlns="http://www.w3.org/2000/svg" width="51.987" height="51.986" viewBox="0 0 51.987 51.986">
  <circle id="Ellipse_1" data-name="Ellipse 1" cx="25.993" cy="25.993" r="25.993" transform="translate(0 0)" fill="#41b4e6"/>
  <path id="Path_12" data-name="Path 12" d="M148.115,144.076q0-.955-.069-1.892L137.221,131.36l-30.449,11.977,11.65,11.65.153.55.2-.2h0l-.2.2,12.887,12.887A26.126,26.126,0,0,0,148.115,144.076Z" transform="translate(-96.128 -118.209)" fill="#0091c8"/>
  <path id="Path_13" data-name="Path 13" d="M119.459,147.882l11.8,8.911,5.958-25.433-30.45,11.977,9.265,3.069,16.91-11.343Z" transform="translate(-96.127 -118.209)" fill="#fff"/>
  <path id="Path_14" data-name="Path 14" d="M197.588,179.007l2.538,9.131.885-7.656L214.5,167.664Z" transform="translate(-177.679 -150.81)" fill="#d2d2d7"/>
  <path id="Path_15" data-name="Path 15" d="M227.182,296.2l-4.721,4.76.885-7.656Z" transform="translate(-200.014 -263.628)" fill="#b9b9be"/>
</svg>
