<svg id="whatsapp_2_" data-name="whatsapp (2)" xmlns="http://www.w3.org/2000/svg" width="46.46" height="46.46" viewBox="0 0 46.46 46.46">
  <path id="Path_48" data-name="Path 48" d="M23.23,0A23.208,23.208,0,0,0,3.294,35.127L0,46.46l11.334-3.294A23.224,23.224,0,1,0,23.23,0Zm0,0" fill="#00dd7b"/>
  <path id="Path_49" data-name="Path 49" d="M279.23,23.23A23.31,23.31,0,0,1,256,46.46V0A23.31,23.31,0,0,1,279.23,23.23Zm0,0" transform="translate(-232.77)" fill="#00cc71"/>
  <path id="Path_50" data-name="Path 50" d="M147.93,115.868l-1.089,1.062c-1.525,1.525-5.064,1.415-7.323.98a18.97,18.97,0,0,1-6.216-2.532c-5.553-3.376-10.59-9.365-11.815-14.755-.844-3.648-.381-6.806.817-8.031l1.089-1.089a1.563,1.563,0,0,1,2.151,0l4.328,4.328a1.512,1.512,0,0,1,0,2.178l-1.089,1.062a3.107,3.107,0,0,0,0,4.328l4.519,4.438,2.64,2.613a3.167,3.167,0,0,0,4.419,0l1.062-1.089a1.656,1.656,0,0,1,2.178,0l4.328,4.329a1.57,1.57,0,0,1,0,2.178Zm0,0" transform="translate(-110.072 -82.811)" fill="#ececf1"/>
  <path id="Path_51" data-name="Path 51" d="M270.627,283.832l-1.089,1.062c-1.525,1.525-5.063,1.415-7.323.98A18.969,18.969,0,0,1,256,283.341V275.8l2.64,2.614a3.167,3.167,0,0,0,4.419,0l1.062-1.089a1.656,1.656,0,0,1,2.178,0l4.328,4.329A1.57,1.57,0,0,1,270.627,283.832Zm0,0" transform="translate(-232.77 -250.774)" fill="#e2e2e7"/>
</svg>
