<svg id="youtube_2_" data-name="youtube (2)" xmlns="http://www.w3.org/2000/svg" width="55.788" height="55.287" viewBox="0 0 55.788 55.287">
  <g id="Group_6" data-name="Group 6">
    <g id="Group_5" data-name="Group 5">
      <g id="Group_4" data-name="Group 4">
        <g id="Group_3" data-name="Group 3">
          <g id="Group_2" data-name="Group 2">
            <circle id="Ellipse_3" data-name="Ellipse 3" cx="27.644" cy="27.644" r="27.644" fill="#bfe1ff"/>
          </g>
        </g>
      </g>
    </g>
  </g>
  <path id="Path_29" data-name="Path 29" d="M132.229,168.994q0-.823-.047-1.635l-9.044-9.044-37.52,21.646,17.012,16.972q.8.046,1.614.046A27.985,27.985,0,0,0,132.229,168.994Z" transform="translate(-76.441 -141.692)" fill="#87c7ff"/>
  <g id="Group_7" data-name="Group 7" transform="translate(7.542 14.92)">
    <path id="Path_30" data-name="Path 30" d="M107.388,167.026a285.935,285.935,0,0,1-32.94,0,3.4,3.4,0,0,1-3.173-2.929,65.506,65.506,0,0,1,0-17.955,3.4,3.4,0,0,1,3.173-2.929,285.949,285.949,0,0,1,32.94,0,3.4,3.4,0,0,1,3.173,2.929,65.506,65.506,0,0,1,0,17.955A3.4,3.4,0,0,1,107.388,167.026Z" transform="translate(-70.657 -142.738)" fill="#ff6c52"/>
  </g>
  <g id="Group_8" data-name="Group 8" transform="translate(27.816 14.92)">
    <path id="Path_31" data-name="Path 31" d="M275.75,146.142a3.4,3.4,0,0,0-3.173-2.929q-8.228-.474-16.457-.475V167.5q8.228,0,16.457-.475a3.4,3.4,0,0,0,3.173-2.929A65.506,65.506,0,0,0,275.75,146.142Z" transform="translate(-256.12 -142.738)" fill="#ff432e"/>
  </g>
  <g id="Group_9" data-name="Group 9" transform="translate(23.516 19.453)">
    <path id="Path_32" data-name="Path 32" d="M216.786,184.2l12.57,7.849-12.57,7.849Z" transform="translate(-216.786 -184.202)" fill="#fff"/>
  </g>
  <path id="Path_33" data-name="Path 33" d="M256.12,219.09l8.271-5.164-8.271-5.164Z" transform="translate(-228.304 -186.624)" fill="#e9edf5"/>
</svg>
